HIERARCHY
ROOT Pelvis
{
	OFFSET 0.000000 0.941512 0.000000
	CHANNELS 6 Xposition Yposition Zposition Zrotation Yrotation Xrotation 
	JOINT Pelvis_L_Hip
	{
		OFFSET 0.000000 0.000000 0.000000
		CHANNELS 3 Zrotation Yrotation Xrotation
		JOINT L_Hip
		{
			OFFSET 0.062321 -0.080322 -0.016990
			CHANNELS 3 Zrotation Yrotation Xrotation
			JOINT L_Knee
			{
				OFFSET 0.093051 -0.381305 -0.029784
				CHANNELS 3 Zrotation Yrotation Xrotation
				JOINT L_Ankle
				{
					OFFSET -0.010371 -0.431000 -0.033614
					CHANNELS 3 Zrotation Yrotation Xrotation
					End Site #name: L_Foot
					{
						OFFSET 0.069299 -0.038670 0.119418
					}
				}
			}
		}
	}
	JOINT Pelvis_R_Hip
	{
		OFFSET 0.000000 0.000000 0.000000
		CHANNELS 3 Zrotation Yrotation Xrotation
		JOINT R_Hip
		{
			OFFSET -0.055334 -0.094904 -0.002373
			CHANNELS 3 Zrotation Yrotation Xrotation
			JOINT R_Knee
			{
				OFFSET -0.064207 -0.384370 -0.019592
				CHANNELS 3 Zrotation Yrotation Xrotation
				JOINT R_Ankle
				{
					OFFSET 0.025418 -0.419734 -0.065953
					CHANNELS 3 Zrotation Yrotation Xrotation
					End Site #name: R_Foot
					{
						OFFSET -0.057233 -0.039888 0.132134
					}
				}
			}
		}
	}
	JOINT Pelvis_Spine1
	{
		OFFSET 0.000000 0.000000 0.000000
		CHANNELS 3 Zrotation Yrotation Xrotation
		JOINT Spine1
		{
			OFFSET -0.005562 0.124093 -0.043360
			CHANNELS 3 Zrotation Yrotation Xrotation
			JOINT Spine2
			{
				OFFSET 0.012244 0.139499 0.029894
				CHANNELS 3 Zrotation Yrotation Xrotation
				JOINT Spine3
				{
					OFFSET -0.002556 0.056561 0.009225
					CHANNELS 3 Zrotation Yrotation Xrotation
					JOINT Spine3_Neck
					{
						OFFSET 0.000000 0.000000 0.000000
						CHANNELS 3 Zrotation Yrotation Xrotation
						JOINT Neck
						{
							OFFSET -0.005205 0.217920 -0.024551
							CHANNELS 3 Zrotation Yrotation Xrotation
							End Site #name: Head
							{
								OFFSET 0.002365 0.091850 0.046637
							}
						}
					}
					JOINT Spine3_L_Collar
					{
						OFFSET 0.000000 0.000000 0.000000
						CHANNELS 3 Zrotation Yrotation Xrotation
						JOINT L_Collar
						{
							OFFSET 0.072225 0.116603 -0.009480
							CHANNELS 3 Zrotation Yrotation Xrotation
							JOINT L_Shoulder
							{
								OFFSET 0.115937 -0.058643 -0.021018
								CHANNELS 3 Zrotation Yrotation Xrotation
								JOINT L_Elbow
								{
									OFFSET 0.021994 -0.254722 -0.024492
									CHANNELS 3 Zrotation Yrotation Xrotation
									End Site #name: L_Wrist
									{
										OFFSET 0.048810 -0.240214 0.103329
									}
								}
							}
						}
					}
					JOINT Spine3_R_Collar
					{
						OFFSET 0.000000 0.000000 0.000000
						CHANNELS 3 Zrotation Yrotation Xrotation
						JOINT R_Collar
						{
							OFFSET -0.073372 0.120704 -0.024611
							CHANNELS 3 Zrotation Yrotation Xrotation
							JOINT R_Shoulder
							{
								OFFSET -0.108089 -0.054969 -0.020504
								CHANNELS 3 Zrotation Yrotation Xrotation
								JOINT R_Elbow
								{
									OFFSET -0.033684 -0.260739 0.009889
									CHANNELS 3 Zrotation Yrotation Xrotation
									End Site #name: R_Wrist
									{
										OFFSET -0.067980 -0.232763 0.118463
									}
								}
							}
						}
					}
				}
			}
		}
	}
}
MOTION
Frames: 8
Frame Time: 0.041667
0.661046 0.952361 0.178791 8.236023 -4.750804 -7.859841 0.000000 0.000000 0.000000 -13.042824 0.785152 -0.109763 5.578179 -1.580110 16.808589 -1.450254 -2.417544 1.212273 0.000000 0.000000 0.000000 5.873320 1.636047 -8.497249 -6.763579 5.836781 31.976214 -2.113167 9.204410 -9.310748 0.000000 0.000000 0.000000 6.234668 -2.262758 7.842948 -2.365707 4.072633 40.953992 1.816249 0.282369 -41.635581 0.000000 0.000000 0.000000 6.823052 -5.486998 26.431044 0.000000 0.000000 0.000000 21.196075 -0.326137 3.438479 -6.920476 1.594423 8.783567 -8.963497 -9.381243 -15.600453 0.000000 0.000000 0.000000 -21.422739 -5.336290 8.988615 8.063033 -3.760876 22.639870 3.445251 9.418540 -19.269941 
0.666691 0.962510 0.178928 6.634822 -5.562296 -6.280231 0.000000 0.000000 0.000000 -10.991280 1.231821 1.425050 5.086992 -1.141093 11.256363 -2.647038 -3.035611 2.968032 0.000000 0.000000 0.000000 6.618486 1.602279 -8.297507 -6.631926 5.132765 28.082311 -1.481005 9.892917 -8.324216 0.000000 0.000000 0.000000 5.825403 -2.127175 7.488587 -1.888298 3.829590 40.525911 2.829507 1.063137 -41.584508 0.000000 0.000000 0.000000 7.169714 -5.717917 26.337763 0.000000 0.000000 0.000000 23.459746 0.922511 4.966764 -7.065934 1.900358 10.732643 -11.274436 -12.966073 -20.505602 0.000000 0.000000 0.000000 -22.790786 -5.314497 9.491507 7.466886 -3.761832 22.966821 3.363869 10.160006 -21.013506 
0.669421 0.961648 0.176006 5.588685 -6.256141 -4.540444 0.000000 0.000000 0.000000 -9.694105 1.014779 1.013731 4.630959 -0.921906 8.848369 -2.470957 -2.750413 2.844665 0.000000 0.000000 0.000000 7.376122 2.188789 -10.732774 -6.248930 5.082516 28.547895 -1.499178 8.715824 -7.809226 0.000000 0.000000 0.000000 4.641441 -1.776061 7.073994 -1.202271 3.522852 40.552104 3.919685 1.456765 -40.846082 0.000000 0.000000 0.000000 7.693757 -5.853648 24.660250 0.000000 0.000000 0.000000 25.649621 2.099889 6.459041 -8.254212 2.280433 12.096797 -12.884204 -15.944085 -24.460948 0.000000 0.000000 0.000000 -23.294347 -6.055880 10.361330 6.873879 -3.439877 21.460500 3.022832 10.369870 -22.071971 
0.672270 0.955298 0.170627 5.023599 -6.826153 -3.392669 0.000000 0.000000 0.000000 -9.191302 -0.109473 -2.255889 3.922720 -0.989131 12.739899 -0.663428 -0.887063 0.701687 0.000000 0.000000 0.000000 7.989166 3.409105 -15.510333 -4.840689 5.394304 33.974067 -2.137777 2.776842 -6.197529 0.000000 0.000000 0.000000 4.242007 -1.856141 8.733994 -1.234928 3.517823 39.904364 4.160675 1.349480 -40.451369 0.000000 0.000000 0.000000 8.374669 -5.964574 21.948875 0.000000 0.000000 0.000000 26.596430 2.570249 7.054378 -9.826153 2.754063 13.504134 -13.172120 -17.151194 -26.596738 0.000000 0.000000 0.000000 -23.173063 -6.895027 11.066954 7.885555 -3.287712 20.108276 1.050600 9.058963 -22.833931 
0.673084 0.941823 0.164465 4.798722 -7.652050 -2.872802 0.000000 0.000000 0.000000 -7.750593 -2.340118 -9.105711 0.799369 -0.454595 24.587062 2.037835 2.170759 -2.602221 0.000000 0.000000 0.000000 8.421458 5.053632 -21.508250 -0.785865 4.657540 42.531061 -3.898462 -6.761782 -4.367671 0.000000 0.000000 0.000000 4.084670 -2.199060 12.563867 -1.711240 3.632183 38.164985 3.717850 1.100866 -40.354110 0.000000 0.000000 0.000000 8.899309 -6.014486 19.750140 0.000000 0.000000 0.000000 25.807748 2.833729 6.987253 -11.917855 3.079161 13.462234 -10.296831 -14.555863 -26.158250 0.000000 0.000000 0.000000 -23.135493 -6.752323 10.992380 10.254152 -3.287515 19.178027 0.207900 7.997405 -22.074706 
0.669734 0.912898 0.157578 4.827825 -8.595569 -2.696024 0.000000 0.000000 0.000000 -5.084280 -4.701300 -17.754918 -3.507267 1.784554 40.213245 4.069146 4.132994 -5.438852 0.000000 0.000000 0.000000 8.721335 6.602095 -26.706617 2.899495 3.549826 50.541931 -6.128134 -14.043556 -4.601812 0.000000 0.000000 0.000000 3.612468 -2.473024 17.473140 -2.672074 3.894954 35.840970 3.211538 0.935961 -41.068954 0.000000 0.000000 0.000000 8.812959 -5.775167 18.521366 0.000000 0.000000 0.000000 23.757067 2.005546 5.693971 -11.613988 3.067614 13.705207 -7.922311 -12.626248 -25.965652 0.000000 0.000000 0.000000 -22.936051 -5.656454 10.063835 11.829793 -3.320976 18.898001 1.455208 8.716817 -21.446340 
0.669506 0.866065 0.151408 6.160904 -8.982275 -1.627588 0.000000 0.000000 0.000000 -4.687812 -6.598044 -25.230386 -6.164666 4.232908 51.137440 7.740500 8.399710 -10.505615 0.000000 0.000000 0.000000 6.205435 7.671574 -32.528937 6.093719 2.137099 58.597593 -8.383812 -15.247803 -10.784769 0.000000 0.000000 0.000000 3.418726 -2.614685 20.186650 -3.755832 4.104745 33.216255 1.659022 -0.064962 -40.990589 0.000000 0.000000 0.000000 9.253618 -5.293950 12.385515 0.000000 0.000000 0.000000 18.283836 0.685912 3.337880 -7.095372 1.736612 9.459142 -4.478750 -9.212362 -23.596525 0.000000 0.000000 0.000000 -18.743112 -5.256991 8.239793 7.897092 -2.635301 16.808452 4.656124 10.850496 -20.257108 
0.664278 0.828918 0.153834 7.156104 -9.491909 -1.454108 0.000000 0.000000 0.000000 -5.177484 -7.728529 -29.414708 -6.360508 5.325124 58.307388 9.491187 11.659843 -12.331179 0.000000 0.000000 0.000000 5.190095 8.500387 -36.335613 8.669168 0.568872 64.544021 -9.771962 -17.656882 -13.799258 0.000000 0.000000 0.000000 3.564963 -2.664380 20.552122 -4.074311 4.369662 33.712712 -0.160239 -0.769390 -41.924772 0.000000 0.000000 0.000000 8.931433 -4.702330 8.856395 0.000000 0.000000 0.000000 15.494433 -2.994919 0.203019 -4.025116 0.481930 2.472334 -0.882091 -6.716034 -23.712980 0.000000 0.000000 0.000000 -16.608286 -1.416199 4.706864 5.839549 -2.049126 14.137379 4.039698 11.330021 -22.112371 
